PathFileType	4	(X/Y/Z)	C:/Users/opensim2020/Desktop/walking_exp_matlab/subject01_walking11_straight_01.trc																																																																																																																																		
DataRate	CameraRate	NumFrames	NumMarkers	Units	OrigDataRate	OrigDataStartFrame	OrigNumFrames																																																																																																																														
100	100	7	44	mm	100	956	374																																																																																																																														
Frame#	Time	LFHD			RFHD			LBHD			RBHD			C7			T10			CLAV			STRN			RBAK			LSHO			LUPA			LELB			LFRM			LWRA			LWRB			LFIN			RSHO			RUPA			RELB			RFRM			RWRA			RWRB			RFIN			LASI			RASI			LPSI			RPSI			LTHI			LKNE			LTIB			LANK			LHEE			LTOE			RTHI			RKNE			RTIB			RANK			RHEE			RTOE			*39			*40			*41			*42			*43		
		X1	Y1	Z1	X2	Y2	Z2	X3	Y3	Z3	X4	Y4	Z4	X5	Y5	Z5	X6	Y6	Z6	X7	Y7	Z7	X8	Y8	Z8	X9	Y9	Z9	X10	Y10	Z10	X11	Y11	Z11	X12	Y12	Z12	X13	Y13	Z13	X14	Y14	Z14	X15	Y15	Z15	X16	Y16	Z16	X17	Y17	Z17	X18	Y18	Z18	X19	Y19	Z19	X20	Y20	Z20	X21	Y21	Z21	X22	Y22	Z22	X23	Y23	Z23	X24	Y24	Z24	X25	Y25	Z25	X26	Y26	Z26	X27	Y27	Z27	X28	Y28	Z28	X29	Y29	Z29	X30	Y30	Z30	X31	Y31	Z31	X32	Y32	Z32	X33	Y33	Z33	X34	Y34	Z34	X35	Y35	Z35	X36	Y36	Z36	X37	Y37	Z37	X38	Y38	Z38	X39	Y39	Z39	X40	Y40	Z40	X41	Y41	Z41	X42	Y42	Z42	X43	Y43	Z43	X44	Y44	Z44
																																																																																																																																					
47	0.46	-987.75433	1673.31506	1363.76453	-965.97601	1682.64331	1475.90161	-1088.57092	1601.76196	1380.65137	-1068.68835	1609.86084	1499.68481	-1087.06458	1426.64648	1403.98889	-1129.22705	1136.43274	1410.57849	-944.71991	1357.85803	1417.58667	-908.0246	1199.23022	1416.34827	-1154.93262	1236.69263	1474.16357	-989.48822	1388.20703	1252.35718	-1005.84961	1203.86658	1163.95398	-1014.18616	1053.60608	1159.79456	-966.80084	948.87256	1139.02747	-886.8595	837.80737	1167.02185	-935.70135	830.7074	1134.00867	-882.75	764.6665	1131.04272	-1023.99329	1387.02112	1560.677	-1089.43652	1187.60303	1655.75745	-1083.79041	1062.27185	1659.64282	-1048.40015	946.78143	1691.40527	-957.04352	838.53479	1678.03589	-1003.40002	834.5	1714.07153	-958.9317	759.94055	1711.75378	-951.93457	926.56683	1318.67114	-968.4433	927.90045	1535.45776	-1141.86694	942.08887	1358.68616	-1150.26782	942.63239	1504.83301	-960.62573	594.98627	1275.47473	-961.94885	461.22183	1299.6228	-1011.96649	276.38327	1296.93604	-1036.85779	63.16024	1361.70483	-1082.47729	35.01289	1414.58875	-889.77191	29.57969	1356.31689	-967.46344	602.0542	1611.32813	-936.49213	446.84436	1598.37195	-1067.98694	328.65103	1591.98083	-1191.71997	166.14766	1538.16956	-1243.17261	150.91806	1477.38086	-1102.49939	62.29573	1569.31616	-987.70624	1712.23938	1455.14417	1973.00366	1023.51862	-3102.05371	2012.51013	1021.98492	-3140.67407	NaN	NaN	NaN	NaN	NaN	NaN
48	0.47	-982.3974	1673.63745	1363.31653	-960.61768	1682.92676	1475.37793	-1083.29004	1602.12231	1380.24451	-1063.32715	1610.18188	1499.30237	-1081.84998	1426.95789	1403.5387	-1124.18701	1136.81409	1410.37219	-939.55225	1358.10706	1417.13623	-903.0108	1199.45776	1415.77368	-1149.84204	1237.06372	1473.74304	-984.56665	1388.46045	1251.77197	-1000.28973	1204.25342	1163.36829	-1007.63141	1053.85706	1159.11487	-959.2019	949.54181	1138.41895	-877.771	839.52063	1166.16467	-927.03784	831.77643	1133.71985	-873.19891	766.29156	1130.42029	-1018.74854	1387.35828	1560.2688	-1084.75427	1188.02661	1655.26733	-1079.52161	1062.65137	1659.15759	-1044.47192	947.10022	1690.85022	-953.34869	838.64587	1677.57471	-999.7301	834.66919	1713.58606	-955.37372	760.04767	1711.11365	-947.42371	926.65118	1318.25488	-963.12134	928.59308	1534.9491	-1137.24707	942.22809	1358.98425	-1144.8186	942.60779	1505.09558	-958.41968	594.7597	1275.30737	-960.72632	461.03345	1299.29333	-1011.22827	276.33517	1296.80688	-1036.73193	63.14192	1361.69031	-1082.36646	34.9896	1414.79883	-889.87329	29.531	1356.07104	-958.94653	603.59216	1611.19849	-925.80664	448.43533	1597.50806	-1054.41028	326.75467	1592.13062	-1173.82275	160.92807	1539.17883	-1225.19299	143.82446	1478.77588	-1080.77258	60.62477	1570.24475	-982.37787	1712.50879	1454.70361	1973.12634	1024.00989	-3101.82666	2012.56311	1022.04974	-3140.73877	NaN	NaN	NaN	NaN	NaN	NaN
49	0.48	-976.98962	1674.11682	1362.89478	-955.18781	1683.2124	1475.00854	-1077.94897	1602.40295	1379.93738	-1057.93164	1610.46667	1498.90369	-1076.70581	1427.34888	1403.22498	-1119.27283	1137.22656	1410.17139	-934.32043	1358.33179	1416.69092	-897.98041	1199.70923	1415.24768	-1144.73303	1237.44568	1473.37512	-979.53406	1388.74988	1251.38782	-994.81689	1204.56189	1162.85742	-1001.09637	1054.1283	1158.50146	-951.67413	950.23645	1137.86108	-868.83813	841.37494	1164.93335	-918.23187	832.7373	1133.3551	-863.72144	767.87939	1129.91943	-1013.43921	1387.62048	1559.93005	-1080.06848	1188.42004	1654.85754	-1075.25	1063.03333	1658.66553	-1040.45471	947.42865	1690.44324	-949.64404	838.80389	1677.10388	-996.03821	834.82465	1713.08643	-951.83447	760.15118	1710.58984	-942.81989	926.586	1317.55798	-957.888	929.14447	1534.51538	-1132.6665	942.46674	1359.26318	-1139.70691	943.09778	1505.45996	-956.29089	594.50879	1275.0946	-959.46375	460.79889	1298.94922	-1010.55713	276.28174	1296.57056	-1036.86377	63.25212	1361.7251	-1082.44006	35.2109	1414.80005	-889.83252	29.44891	1356.03113	-950.37091	604.58881	1610.48401	-915.3031	450.15601	1596.49487	-1040.54358	324.64899	1592.24011	-1155.10999	155.6114	1540.46204	-1206.48022	136.26476	1480.1637	-1058.45959	58.79396	1571.00732	-976.85138	1712.81873	1454.3584	1973.08887	1023.61542	-3101.93799	2012.49805	1021.9657	-3140.5874	NaN	NaN	NaN	NaN	NaN	NaN
50	0.49	-971.6839	1674.33374	1362.57166	-949.73413	1683.44507	1474.64563	-1072.61609	1602.72571	1379.62744	-1052.55884	1610.83411	1498.64453	-1071.53748	1427.75488	1402.94324	-1114.28137	1137.6051	1410.02087	-929.07117	1358.55261	1416.28101	-892.9682	1199.88672	1414.68835	-1139.6217	1237.81299	1473.06885	-974.53198	1389.07104	1251.005	-989.37689	1204.87927	1162.39539	-994.48975	1054.53528	1158.02625	-944.21747	950.90314	1137.41003	-860.07562	842.99036	1164.33582	-909.60455	833.72894	1133.06885	-854.39264	769.51343	1129.45178	-1008.17419	1387.87622	1559.55554	-1075.32141	1188.77893	1654.4801	-1070.98621	1063.51086	1658.34204	-1036.47351	947.68292	1690.03638	-945.94257	838.79449	1676.69128	-992.38538	835.00049	1712.67993	-948.36871	760.18634	1710.23096	-938.08405	926.78674	1317.47595	-952.81274	929.63361	1534.11853	-1128.06177	942.76819	1359.53308	-1134.79163	943.75665	1505.89526	-954.19122	594.30634	1274.88818	-958.16925	460.59299	1298.62964	-1009.95789	276.32224	1296.42883	-1036.75452	63.22237	1361.74463	-1082.33459	35.19659	1414.86865	-889.78418	29.37868	1355.99268	-942.01563	605.6629	1610.30762	-905.38983	451.74429	1595.54626	-1026.95044	322.76089	1592.12207	-1136.60962	149.69189	1541.1925	-1187.63232	128.74561	1481.50488	-1036.1272	56.51056	1571.64392	-971.51764	1713.03247	1453.9259	1973.23108	1023.53973	-3101.84229	2012.51208	1022.07037	-3140.68652	NaN	NaN	NaN	NaN	NaN	NaN
51	0.5	-966.30078	1674.63867	1362.26221	-944.37018	1683.73401	1474.25366	-1067.35376	1603.02637	1379.46326	-1047.20007	1611.13428	1498.42651	-1066.2666	1427.95154	1402.68372	-1109.33826	1137.95349	1409.88416	-923.85846	1358.78174	1415.93774	-887.85272	1200.07227	1414.26563	-1134.46472	1238.1355	1472.84399	-969.50507	1389.43018	1250.73901	-983.98651	1205.23755	1162.02246	-988.06384	1054.65491	1157.61877	-936.69641	951.59576	1137.04358	-851.39954	844.69025	1163.92456	-900.91272	834.77673	1132.89636	-845.10498	771.12469	1129.15137	-1002.91968	1388.06445	1559.23938	-1070.52209	1189.16418	1654.18506	-1066.6062	1063.84631	1657.94678	-1032.46924	947.9679	1689.72571	-942.3017	838.78931	1676.375	-988.71588	835.00818	1712.31702	-944.88324	760.1499	1709.93481	-933.32715	926.87286	1317.31348	-947.65448	930.12634	1533.82605	-1123.44568	943.1228	1359.86096	-1129.46936	943.883	1506.18506	-952.12311	594.16144	1274.70251	-956.85168	460.41083	1298.42908	-1009.40021	276.35349	1296.31946	-1036.78125	63.218	1361.72632	-1082.36841	35.31294	1414.84314	-889.80078	29.36425	1355.90955	-933.91302	607.00629	1609.97424	-895.78436	453.19827	1594.58704	-1013.42572	320.59137	1592.32861	-1117.30225	143.50546	1542.12146	-1168.18213	120.96442	1482.94324	-1013.27386	54.27983	1572.0188	-966.05511	1713.37561	1453.58704	1973.07178	1023.47528	-3101.97339	2012.52856	1022.0614	-3140.61035	NaN	NaN	NaN	NaN	NaN	NaN
52	0.51	-961.08148	1674.81213	1361.99304	-938.96375	1683.95972	1473.97522	-1062.13977	1603.34436	1379.28564	-1041.78113	1611.38452	1498.22083	-1061.05957	1428.2699	1402.55249	-1104.37585	1138.36072	1409.75952	-918.60803	1359.0011	1415.63196	-882.81299	1200.25537	1413.8446	-1129.2804	1238.43469	1472.63318	-964.49677	1389.73889	1250.43689	-978.61145	1205.51831	1161.72095	-981.65234	1054.81824	1157.28235	-929.37079	952.27972	1136.81885	-842.70734	846.33789	1163.51563	-892.37927	835.8468	1132.8363	-835.90454	772.83655	1128.92432	-997.57813	1388.2594	1558.98364	-1065.66736	1189.47083	1653.93616	-1062.16113	1064.18213	1657.68384	-1028.41187	948.21216	1689.42725	-938.67163	838.72882	1676.08508	-985.08618	835.20166	1712.10559	-941.47748	760.17242	1709.72119	-930.14349	926.24298	1316.23413	-942.6308	930.55194	1533.50916	-1118.84314	943.39417	1360.16797	-1124.6001	944.46674	1506.65747	-950.08289	593.98535	1274.59912	-955.54095	460.20596	1298.21179	-1008.8009	276.4017	1296.23132	-1036.7644	63.26389	1361.76794	-1082.34558	35.47205	1414.91577	-889.77844	29.30007	1355.85706	-926.09521	608.21979	1609.71582	-886.63464	454.63702	1593.72839	-999.51245	317.92126	1592.48999	-1097.77612	137.53249	1543.33533	-1148.11658	113.03687	1484.51196	-990.07257	52.08677	1572.52893	-960.66925	1713.59192	1453.35315	1972.96008	1024.10669	-3102.0752	2012.49915	1022.05383	-3140.6355	NaN	NaN	NaN	NaN	NaN	NaN
53	0.52	-955.78833	1675.0481	1361.84265	-933.5415	1684.1012	1473.82825	-1056.77649	1603.56934	1379.21313	-1036.36121	1611.66394	1498.08899	-1055.86389	1428.58936	1402.42798	-1099.41833	1138.67273	1409.63818	-913.31464	1359.18518	1415.37561	-877.76428	1200.34045	1413.5061	-1124.08167	1238.69739	1472.5	-959.44427	1389.97864	1250.23132	-973.13287	1205.82605	1161.5332	-975.16321	1054.92236	1157.16418	-922.08984	952.9754	1136.6272	-834.1239	848.06445	1163.21216	-883.82581	836.87695	1132.81824	-826.69592	774.40118	1128.81506	-992.06769	1388.50781	1558.85132	-1060.78296	1189.76404	1653.72607	-1057.63037	1064.49023	1657.43982	-1024.34973	948.40204	1689.22546	-935.01477	838.57233	1675.91687	-981.46564	835.22046	1711.86072	-938.1449	760.08179	1709.61243	-925.74139	926.14038	1316.27698	-937.52075	930.97266	1533.36792	-1114.25659	943.67914	1360.5625	-1119.49792	944.87695	1507.09558	-948.00751	593.81079	1274.55396	-954.23297	460.02823	1298.11646	-1008.19275	276.4299	1296.23962	-1036.96167	63.43872	1362.25403	-1082.48962	35.22823	1415.15283	-889.81091	29.33726	1355.75317	-918.46143	609.32288	1609.56372	-877.67383	455.91992	1592.85962	-985.9621	315.60846	1592.83997	-1077.70691	131.22528	1544.328	-1126.98572	104.30508	1485.90662	-966.75201	50.43076	1572.77979	-955.20673	1713.83484	1453.1228	1973.12573	1023.65704	-3101.88794	2012.51184	1022.08734	-3140.72485	NaN	NaN	NaN	NaN	NaN	NaN
